<svg width="575" height="528" viewBox="0 0 575 528" fill="none" xmlns="http://www.w3.org/2000/svg">
<path d="M304.218 205.201C298.143 209.111 287.912 210.334 282.478 204.853C281.262 203.624 279.294 205.45 280.503 206.668C286.744 212.968 298.546 211.978 305.627 207.413C307.092 206.474 305.701 204.247 304.218 205.201Z" fill="#100F0D"/>
<path d="M281.221 151.797C282.927 150.261 277.729 148.059 276.841 147.705C272.517 145.976 267.601 145.643 263.056 146.779C261.664 147.128 255.119 149.039 256.32 151.35C257.16 152.966 261.947 151.68 263.298 151.553C266.792 151.217 270.271 151.511 273.736 151.955C275.732 152.21 279.532 153.321 281.221 151.797Z" fill="#100F0D"/>
<path d="M313.597 151.553C317.091 151.217 320.567 151.511 324.035 151.955C326.031 152.21 329.827 153.321 331.52 151.797C333.226 150.261 328.028 148.059 327.141 147.705C322.816 145.976 317.9 145.643 313.354 146.779C311.963 147.128 305.418 149.039 306.619 151.35C307.459 152.966 312.246 151.68 313.597 151.553Z" fill="#100F0D"/>
<path d="M269.086 171.366C266.927 171.357 265.19 168.791 265.208 165.639C265.229 162.488 266.993 159.939 269.152 159.948C271.315 159.961 273.052 162.526 273.035 165.678C273.014 168.829 271.249 171.379 269.086 171.366Z" fill="#100F0D"/>
<path d="M319.378 171.362C317.22 171.352 315.482 168.788 315.5 165.637C315.518 162.481 317.286 159.936 319.444 159.945C321.606 159.955 323.34 162.519 323.324 165.675C323.306 168.827 321.54 171.372 319.378 171.362Z" fill="#100F0D"/>
<path d="M295.065 193.207C296.865 193.181 296.865 190.614 295.065 190.638C287.594 190.747 291.88 182.043 292.533 178.768C293.794 172.439 295.614 166.313 295.632 159.837C295.635 158.184 292.841 158.184 292.837 159.841C292.817 168.713 289.249 176.917 288.081 185.599C287.418 190.534 289.518 193.287 295.065 193.207Z" fill="#100F0D"/>
<path d="M481.842 430.331C481.45 441.98 481.031 453.943 480.98 461.438H395.29C399.915 432.803 402.268 403.928 402.322 374.985C402.322 373.324 399.549 373.324 399.525 374.985C399.472 403.928 397.145 432.803 392.491 461.438H294.596V446.014H319.742C327.455 446.014 333.699 440.275 333.699 433.188V366.433C333.699 365.519 333.572 364.653 333.361 363.814C333.413 364.052 333.464 364.294 333.492 364.535C333.046 364.893 332.473 365.303 331.714 365.808C329.544 363.935 330.957 362.3 331.896 360.57C332.028 360.665 332.107 360.738 332.211 360.812C329.966 356.536 325.233 353.581 319.742 353.581H294.596V333.451C299.587 329.534 303.769 324.539 307.794 319.685C310.906 315.915 314.122 312.023 317.652 308.804C321.939 304.84 324.553 301.742 324.291 298.546C324.132 296.336 322.642 294.416 320.315 292.445H320.733C330.093 292.445 334.666 287.544 340.577 280.072C345.62 273.661 357.803 258.022 359.423 255.955C361.253 256.098 362.981 256.244 364.52 256.365C367.16 256.581 369.253 256.748 370.168 256.869L374.3 257.47C409.981 262.587 438.159 266.646 456.67 294.679C467.857 312.07 480.327 353.87 482.548 400.161C482.73 404.17 482.313 416.879 481.842 430.331ZM319.742 419.114V420.361C319.742 422.428 318.384 424.205 316.449 425.021C315.952 423.844 315.009 422.859 313.808 422.234C313.731 422.212 313.652 422.187 313.6 422.163C314.54 421.707 315.479 421.297 316.446 420.819C316.919 420.552 317.469 420.288 318.018 419.999C318.563 419.735 319.14 419.425 319.742 419.114ZM299.18 405.214C299.13 405.24 299.079 405.259 299.034 405.287C299.079 405.259 299.13 405.24 299.18 405.214ZM283.328 437.778C283.276 437.803 276.976 439.193 273.474 439.025C267.173 438.45 263.121 437.946 258.728 437.079C259.094 433.718 259.332 430.305 259.46 426.991C259.539 425.477 259.618 423.917 259.698 422.333C259.957 417.647 260.22 412.673 259.882 407.605C259.539 402.681 258.624 397.686 256.586 392.832C258.075 392.255 259.568 391.585 260.924 390.55C263.723 388.41 265.812 384.808 267.381 379.57C268.375 376.256 269.864 374.095 271.249 373.949C271.957 373.879 272.897 374.07 273.29 374.696C274.545 376.593 273.943 379.933 273.553 382.163C273.263 383.824 272.897 385.072 272.583 386.275C272.033 388.22 271.539 390.045 271.431 393L271.407 393.647C271.357 395.568 271.277 397.25 272.271 399.438C273.709 402.634 279.197 401.863 281.497 401.383C285.107 400.641 288.686 399.774 292.244 398.907C297.6 397.613 303.145 396.267 308.685 395.352C312.423 394.727 313.966 395.115 314.595 395.546C314.778 395.689 314.985 395.905 315.037 396.388C315.248 398.571 311.979 400.399 310.958 400.903C309.807 401.478 308.606 401.983 307.403 402.487C305.183 403.183 302.986 403.928 300.816 404.649L299.455 405.107C299.41 405.129 299.365 405.131 299.32 405.148C299.323 405.148 299.328 405.145 299.334 405.141L299.452 405.1C296.08 406.007 292.712 406.715 289.563 407.334C288.872 407.472 288.168 407.595 287.46 407.722C285.708 408.033 283.891 408.353 282.171 408.858C281.632 409.014 281.28 409.445 281.214 409.932C281.193 410.106 281.2 410.289 281.266 410.471C281.456 411.016 282.005 411.366 282.596 411.366C282.737 411.366 282.879 411.344 283.021 411.305C284.582 410.845 286.316 410.541 287.991 410.245C288.716 410.116 289.442 409.985 290.15 409.849C292.347 409.413 294.65 408.935 296.989 408.382C297.256 407.465 297.75 406.63 298.506 405.954C298.591 405.709 298.754 405.493 298.975 405.332C298.76 405.49 298.606 405.699 298.516 405.948C297.759 406.621 297.262 407.458 296.999 408.372C296.267 410.849 297.211 413.874 299.196 415.819C294.647 416.972 290.098 417.933 285.995 418.799C285.234 418.942 284.764 419.64 284.948 420.336C285.079 420.914 285.652 421.319 286.305 421.319C286.413 421.319 286.516 421.319 286.62 421.297C293.653 419.832 301.966 418.102 309.389 415.46C312.238 414.594 314.225 413.777 315.846 413.127C317.075 412.649 318.122 412.217 319.192 411.902C320.366 411.565 321.206 411.807 321.596 412.169C322.042 412.528 322.015 413.032 321.939 413.394C321.389 415.41 318.981 416.587 316.681 417.739C316.081 418.054 315.531 418.318 315.061 418.58C303.116 424.417 292.948 427.566 284.841 427.951C284.057 427.973 283.484 428.575 283.508 429.296C283.559 429.969 284.164 430.521 284.92 430.521C284.948 430.521 284.948 430.521 284.972 430.496C291.404 430.207 298.751 428.359 307.245 424.922C308.498 424.37 309.648 424.082 310.644 424.082C311.324 424.082 311.924 424.227 312.447 424.49C313.517 425.021 313.99 425.982 314.094 426.702C314.225 427.614 312.029 429.007 310.356 429.703C299.09 435.59 283.614 437.73 283.328 437.778ZM291.798 461.438H251.567C255.018 457.188 257.212 448.801 258.418 439.651C262.806 440.491 266.911 441.017 273.29 441.57C273.474 441.57 273.681 441.596 273.892 441.596C275.224 441.596 276.741 441.453 278.206 441.259C280.765 444.141 284.634 446.014 289 446.014H291.798V461.438ZM247.409 461.583C243.253 463.481 234.076 464.681 223.437 464.681C213.897 464.681 205.061 463.719 199.206 462.04C198.159 461.726 197.324 460.958 196.616 459.638C189.898 447.001 202.394 398.021 206.578 387.74C207.804 384.739 212.771 383.056 220.508 383.056C233.92 383.056 251.591 388.341 253.681 392.978C257.944 402.513 257.395 412.988 256.898 422.212C256.818 423.796 256.742 425.358 256.687 426.896C255.854 448.154 251.305 459.781 247.409 461.583ZM190.446 461.63C185.743 461.414 181.3 461.2 177.301 461.2C162.033 461.103 143.916 457.45 126.272 450.917C110.616 445.129 97.5418 429.249 95.1894 413.178C92.2111 392.689 102.456 371.909 111.504 353.581L112.574 351.417C114.668 347.141 116.836 342.913 119.029 338.685C122.508 332.032 126.69 324.874 131.865 316.851L133.671 314.112C153.249 284.398 168.7 260.93 205.348 256.675C207.362 256.46 217.085 255.882 225.658 255.377C226.024 255.377 226.39 255.355 226.733 255.331C227.465 256.292 240.272 273.467 245.474 280.097C248.455 283.843 251.094 286.967 254.154 289.128C257.292 291.341 260.845 292.54 265.732 292.445C263.408 294.416 261.944 296.362 261.761 298.546C261.498 301.742 264.112 304.84 268.428 308.804C271.93 312.023 275.169 315.915 278.282 319.685C282.385 324.658 286.648 329.776 291.798 333.714V353.581H289C285.21 353.581 281.811 354.974 279.276 357.232C279.249 357.424 279.224 357.64 279.17 357.882C278.986 357.856 278.859 357.834 278.7 357.809C276.451 360.092 275.015 363.094 275.015 366.433V372.654C274.023 371.744 272.531 371.239 270.939 371.407C267.511 371.766 265.657 375.683 264.69 378.901C263.277 383.609 261.474 386.779 259.145 388.582C257.995 389.445 256.69 390.023 255.278 390.55C253.211 388.172 248.873 386.011 243.592 384.281C236.508 381.976 227.751 380.485 220.511 380.485C212.118 380.485 206.654 382.361 204.484 385.891C195.362 384.691 186.291 383.129 177.483 380.894C176.724 380.727 175.963 381.11 175.757 381.809C175.549 382.481 175.992 383.202 176.748 383.371C185.455 385.579 194.422 387.141 203.414 388.341C199.23 400.11 186.944 447.338 194.109 460.768C194.316 461.152 194.551 461.488 194.789 461.824C193.324 461.751 191.86 461.704 190.446 461.63ZM257.292 250.55C260.873 256.292 286.675 298.282 291.248 329.845C287.328 326.363 283.878 322.208 280.503 318.123C277.315 314.304 274.047 310.34 270.385 306.978C266.02 302.968 264.4 300.659 264.558 298.739C264.69 296.864 266.649 294.8 271.066 291.794C271.587 291.435 271.771 290.81 271.511 290.258C271.304 289.779 270.779 289.465 270.231 289.465C270.151 289.465 270.075 289.49 269.995 289.49C268.323 289.754 266.752 289.873 265.315 289.873C257.107 289.873 253.29 285.572 247.747 278.583C242.887 272.385 231.306 256.915 229.292 254.203C231.15 252.449 244.85 250.933 257.292 250.55ZM280.32 371.188C281 370.635 281.629 370.01 282.385 369.604C283.355 369.073 284.399 368.716 286.178 367.969C284.92 371.404 283.196 372.171 280.32 371.188ZM275.015 398.669C274.962 398.622 274.883 398.549 274.859 398.453C274.103 396.796 274.154 395.571 274.206 393.72L274.23 393.074C274.309 390.862 274.624 389.373 275.015 387.859V398.669ZM308.26 404.935C308.305 404.92 308.35 404.906 308.398 404.891C310.802 404.122 313.234 403.402 315.69 402.802C317.599 402.32 319.324 403.139 319.952 404.675C320.422 406.764 318.881 408.591 315.299 410.128C311.482 412.074 307.036 413.61 302.492 414.908C299.642 413.828 298.202 408.83 301.158 407.315L301.182 407.293C301.234 407.268 301.263 407.246 301.286 407.22L301.76 407.052C302.865 406.691 303.973 406.319 305.088 405.954C303.973 406.319 302.868 406.691 301.77 407.059L301.292 407.22C301.252 407.242 301.231 407.278 301.189 407.3C301.176 407.307 301.168 407.315 301.155 407.325C303.545 406.655 305.931 405.862 308.26 404.935ZM306.071 386.969C306.098 386.922 306.15 386.849 306.201 386.801C306.304 386.849 306.384 386.922 306.488 386.969H314.146C317.234 386.969 319.742 389.278 319.742 392.112V400.784C318.746 400.279 317.596 400.037 316.394 400.11C317.337 399.006 317.963 397.708 317.831 396.146C317.728 395.064 317.178 394.152 316.29 393.502C314.173 392.039 310.644 392.422 308.188 392.829C302.648 393.744 297.131 395.064 291.798 396.362V392.109C291.798 389.274 294.282 386.969 297.39 386.969H306.071ZM305.99 380.196C305.258 380.942 304.501 381.663 303.745 382.383C303.431 382.071 303.116 381.736 302.802 381.421C303.563 380.678 304.319 379.958 305.079 379.237C305.389 379.57 305.704 379.885 305.99 380.196ZM300.475 369.699C300.475 367.729 302.228 366.118 304.371 366.118C306.515 366.118 308.267 367.729 308.267 369.699C308.267 371.667 306.515 373.28 304.371 373.28C302.228 373.28 300.475 371.667 300.475 369.699ZM259.957 249.42C263.094 246.995 262.938 238.634 262.493 230.299C262.493 230.274 262.493 230.274 262.493 230.252C271.798 235.558 283.17 238.634 294.803 238.634C303.38 238.634 311.482 236.882 318.225 233.591C320.187 232.632 322.407 231.381 324.68 229.94C324.291 237.797 324.159 245.579 326.512 248.677L293.704 327.757C288.478 296.289 263.85 255.933 259.854 249.492C259.878 249.468 259.93 249.446 259.957 249.42ZM251.672 218.167C246.6 212.257 242.783 204.573 240.615 195.902C239.619 191.912 238.784 188.118 238.075 184.418C238.418 184.561 238.731 184.707 239.07 184.828C240.742 185.427 241.475 182.951 239.803 182.351C239.592 182.281 239.41 182.161 239.225 182.062C235.226 180.454 232.249 177.618 230.079 174.184C228.742 172.07 228.169 169.693 228.089 167.265C227.935 163.182 231.75 159.602 235.358 163.808C235.699 164.215 236.141 164.288 236.535 164.192C236.639 164.167 236.746 164.145 236.822 164.094C247.488 161.164 253.081 147.687 255.225 136.806C266.649 136.111 279.564 135.726 293.809 135.726C307.977 135.726 320.839 136.111 332.238 136.784C332.134 147.307 338.539 160.828 349.333 163.881C349.413 163.929 349.492 163.951 349.595 163.977C349.91 164.05 350.224 164.002 350.51 163.808C350.539 163.808 350.539 163.783 350.563 163.783C350.642 163.71 350.719 163.687 350.798 163.592C354.065 159.892 357.412 162.294 357.961 166.09C358.3 168.468 357.491 170.893 356.469 173.055C354.589 176.946 350.877 180.19 346.614 181.847C346.408 181.919 346.225 182.014 346.014 182.087C344.341 182.666 345.046 185.138 346.746 184.564C347.322 184.37 347.872 184.107 348.445 183.843C347.713 187.71 346.852 191.696 345.806 195.902C343.637 204.573 339.82 212.257 334.749 218.167C332.238 221.075 329.023 223.768 325.731 226.049C325.492 226.145 325.285 226.287 325.127 226.48C322.253 228.426 319.375 230.109 316.919 231.308C310.567 234.406 302.934 236.067 294.803 236.067C277.968 236.063 261.029 229.027 251.672 218.167ZM197.532 148.122C197.742 147.712 198.212 146.944 198.996 145.958C203.099 143.338 215.414 140.504 234.366 138.485C234.908 138.431 235.477 138.377 236.037 138.32C235.482 138.377 234.914 138.435 234.366 138.494L234.221 139.2C233.106 144.658 232.538 150.591 232.504 156.936C206.155 154.029 198.212 150.162 197.532 148.122ZM244.168 145.888C242.445 149.318 239.651 155.029 235.292 156.571C235.347 150.524 235.903 144.878 236.967 139.673L237.264 138.2H237.267C240.663 137.863 244.272 137.548 248.062 137.264C246.808 140.17 245.606 143.052 244.168 145.888ZM232.823 156.984C232.802 156.981 232.778 156.977 232.752 156.974C232.781 156.977 232.805 156.981 232.829 156.984C233.365 157 233.878 156.943 234.372 156.838C233.883 156.943 233.368 157 232.823 156.984ZM233.841 159.482C234.107 159.47 234.369 159.451 234.636 159.419C234.38 159.451 234.124 159.475 233.865 159.492C233.859 159.488 233.848 159.485 233.841 159.482ZM252.352 136.975C250.338 146.655 245.526 158.451 236.746 161.38C236.273 160.923 235.802 160.516 235.334 160.203C235.257 160.152 235.181 160.12 235.109 160.075C235.184 160.12 235.26 160.152 235.337 160.199C235.329 159.904 235.329 159.611 235.326 159.313C235.326 159.313 235.329 159.313 235.334 159.313C244.038 157.44 248.141 144.301 251.202 137.048C251.567 137.022 251.958 137 252.352 136.975ZM256.534 125.132C258.442 125.995 260.427 126.91 262.756 127.966C262.258 129.166 261.841 130.127 261.342 131.306C259.15 131.017 257.212 130.753 255.722 130.537C253.343 127.966 254.572 126.573 256.534 125.132ZM275.747 132.026C275.459 132.626 275.38 133.152 275.145 133.225C274.727 133.346 274.282 133.416 273.892 133.441H273.709C272.478 133.467 271.563 132.699 271.46 129.861C273.445 130.874 274.595 131.449 275.747 132.026ZM314.878 130.896C315.717 130.944 316.578 130.995 317.44 131.042C317.389 131.592 317.337 132.121 317.286 132.674C316.422 132.458 315.558 132.242 314.694 132C314.75 131.641 314.826 131.258 314.878 130.896ZM339.897 137.31C340.183 145.503 343.633 154.87 351.084 159.123C351.087 159.126 351.094 159.126 351.097 159.13C351.094 159.383 351.091 159.635 351.087 159.892C351.087 159.892 351.087 159.892 351.084 159.892C350.534 160.227 349.986 160.659 349.437 161.19C340.445 158.139 334.957 146.055 335.008 136.949C336.68 137.07 338.301 137.191 339.897 137.31ZM345.308 130.224C342.38 133.057 342.38 133.057 337.962 129.191C340.708 129.576 342.746 129.865 345.308 130.224ZM353.364 157.13C353.243 157.142 353.122 157.158 352.995 157.178C352.99 157.175 352.987 157.175 352.984 157.171C353.114 157.158 353.24 157.142 353.364 157.13ZM351.684 156.38C352.051 156.628 352.427 156.863 352.821 157.076C352.424 156.86 352.048 156.628 351.684 156.38ZM351.845 159.555C351.647 159.625 351.467 159.717 351.282 159.805C351.464 159.71 351.65 159.625 351.837 159.552C351.837 159.552 351.84 159.555 351.845 159.555ZM352.027 138.368C371.685 140.386 384.44 143.294 388.624 145.96C389.408 146.944 389.877 147.687 390.088 148.074C389.435 150.068 381.256 154.127 353.912 157.057C353.886 150.667 353.323 144.694 352.196 139.2L352.03 138.368C351.078 138.273 350.111 138.174 349.128 138.079L349.453 139.675C350.479 144.704 351.026 150.157 351.108 155.975C345.544 151.889 343.032 144.277 342.721 137.504C344.915 137.698 347.06 137.888 349.125 138.079C350.117 138.174 351.084 138.273 352.027 138.368ZM377.121 136.517C378.351 137.264 379.473 137.958 380.493 138.678C380.44 138.942 380.389 139.205 380.31 139.498C378.925 139.304 378.013 139.161 376.155 138.87C376.496 138.057 376.806 137.31 377.121 136.517ZM329.414 248.915C329.647 248.41 330.379 246.802 334.431 246.802C337.806 246.802 341.83 247.906 344 248.509L344.994 248.747C354.745 250.792 356.915 252.616 357.333 253.527C357.412 253.721 357.464 253.985 357.253 254.298C357.253 254.298 343.685 271.711 338.328 278.583C332.76 285.572 328.943 289.873 320.733 289.873C319.324 289.873 317.728 289.754 316.055 289.49C315.399 289.391 314.799 289.706 314.54 290.258C314.276 290.81 314.488 291.435 314.982 291.794C319.399 294.797 321.362 296.864 321.521 298.735C321.675 300.659 320.028 302.963 315.666 306.976C312.032 310.34 308.736 314.304 305.572 318.123C302.699 321.606 299.743 325.16 296.474 328.309L329.414 248.915ZM272.583 100.701C272.845 101.327 273.08 101.926 273.549 103.103C272.164 102.814 271.46 102.695 269.498 102.31C271.198 101.421 271.905 101.063 272.583 100.701ZM287.587 70.7465C286.384 72.1875 285.549 73.172 284.61 74.3023C284.084 73.458 283.719 73.1459 283.719 72.8351C283.667 70.7685 284.764 70.1938 287.587 70.7465ZM288.422 80.9806C288.005 80.8844 287.587 80.8115 287.196 80.7166C287.013 79.6593 286.855 78.6019 286.464 76.1049C287.954 77.7356 288.737 78.2623 288.948 78.9608C289.131 79.5383 288.634 80.3069 288.422 80.9806ZM297.756 79.1519C298.07 79.1038 298.385 79.0309 298.699 78.9608C299.09 79.8243 299.563 80.6905 299.77 81.6021C299.77 81.7231 298.591 82.1068 297.417 82.6114C297.573 81.0026 297.679 80.091 297.756 79.1519ZM304.451 71.6829C305.051 73.8444 305.418 75.2386 306.018 77.473C303.013 75.911 302.201 74.6598 304.451 71.6829ZM310.385 68.3911C312.761 69.5695 313.417 69.9023 314.75 70.5788C313.179 72.8613 311.821 74.8756 310.174 77.3039C307.953 73.6505 311.69 72.0665 310.385 68.3911ZM311.849 80.212C311.352 79.3925 310.933 78.9841 310.985 78.7449C311.482 76.9684 312.474 75.9358 315.196 77.1843C313.938 78.3365 312.92 79.2248 311.849 80.212ZM328.079 94.5491C331.008 97.218 331.164 98.802 329.52 100.412C328.943 100.364 328.394 100.291 327.82 100.243C327.897 98.7071 327.949 97.1713 328.079 94.5491ZM350.666 93.181C350.539 93.28 350.407 93.3749 350.248 93.4959C350.224 92.9184 350.196 92.4825 350.196 92.147C350.38 92.4866 350.51 92.8441 350.666 93.181ZM354.3 102.142C354.483 102.671 354.642 103.224 354.797 103.777C354.197 104.16 353.568 104.57 352.839 105.049C353.125 102.909 353.23 102.189 354.3 102.142ZM485.346 400.063C483.332 358.168 472.538 314.304 459.073 293.381C439.885 264.29 409.693 259.942 374.717 254.921L370.613 254.346C369.595 254.203 367.554 254.035 364.76 253.82C363.398 253.699 361.829 253.578 360.158 253.432C360.106 253.121 360.026 252.81 359.896 252.522C358.379 249.277 351.478 247.478 345.623 246.252L344.787 246.059C342.511 245.411 338.224 244.233 334.436 244.233C331.299 244.233 329.388 245.075 328.187 246.132C326.853 242.503 327.299 233.518 327.482 229.82C327.506 229.125 327.558 228.522 327.558 227.994C330.984 225.592 334.304 222.783 336.942 219.755C342.276 213.555 346.276 205.509 348.525 196.479C349.778 191.458 350.774 186.751 351.586 182.186C356.548 178.989 359.923 173.946 360.732 168.3C361.308 164.313 359.008 160.542 355.844 159.437C379.764 156.771 392.205 152.998 392.885 148.217C392.914 148.096 392.938 148.001 392.938 147.88V147.807C392.938 146.728 392.337 145.718 391.214 144.782C388.182 140.65 380.181 132.699 361.411 126.862C362.093 127.126 362.482 127.823 362.248 128.497C362.04 129.023 361.516 129.36 360.914 129.36C360.783 129.36 360.628 129.338 360.473 129.312C345.937 124.795 327.638 122.488 306.125 122.488C302.567 124.579 305.418 129.239 300.267 129.792C300.53 127.005 300.713 124.89 300.948 122.488H281.576C261.188 122.488 243.674 124.532 229.53 128.591C228.798 128.807 228.014 128.424 227.779 127.75C227.544 127.078 227.962 126.357 228.694 126.138C243.126 122.008 260.9 119.917 281.576 119.917H306.045C327.534 119.917 345.858 122.177 360.604 126.621C360.497 126.115 360.369 125.586 360.261 125.154C359.896 123.713 359.529 122.129 359.138 120.516C359.111 120.472 359.111 120.424 359.087 120.374C359.087 120.424 359.114 120.472 359.114 120.516C358.2 120.904 357.491 121.193 355.533 122.031C356.344 119.868 356.656 118.98 357.309 117.275C358.093 118.597 358.538 119.317 359.035 120.132C357.52 113.842 355.768 106.684 354.041 101.228C351.848 95.0538 348.763 88.6421 344.867 82.6595C344.425 82.3955 343.979 82.1068 343.458 81.7479C343.561 81.554 343.664 81.3381 343.796 81.1223C341.43 77.6751 338.78 74.4356 335.896 71.4739C336.025 71.6073 336.159 71.7338 336.266 71.874C336.031 71.8506 335.824 71.874 335.533 71.8506C335.637 71.6829 335.716 71.5399 335.821 71.3969C334.1 69.6383 332.322 67.9539 330.411 66.4455C325.679 62.6973 319.219 60.8974 313.078 60.9703C309.994 60.9923 307.171 61.4501 304.451 62.7949C301.525 64.262 298.361 66.6146 294.962 66.9034C291.512 66.6146 288.35 64.262 285.446 62.7949C282.728 61.4501 279.877 60.9923 276.797 60.9703C270.651 60.8974 264.196 62.6973 259.488 66.4455C251.384 72.8351 244.98 81.7011 240.356 90.8518C240.849 91.0195 241.347 91.1625 241.816 91.3344C241.895 91.839 241.975 92.3436 242.056 92.8441C241.112 93.2291 240.145 93.6155 238.76 94.1435C237.689 96.5209 236.693 98.8983 235.858 101.252C233.637 108.195 231.388 118.022 229.609 125.179C229.558 125.395 229.506 125.659 229.453 125.901C208.488 131.737 199.732 140.339 196.464 144.735C195.314 145.694 194.661 146.703 194.661 147.807C194.661 147.855 194.685 147.88 194.685 147.903C194.685 148.049 194.712 148.192 194.741 148.338C195.6 152.998 207.783 156.72 230.999 159.361C227.938 160.082 225.506 163.468 225.298 167.265C224.933 173.438 229.374 179.374 234.97 182.831C235.754 187.205 236.693 191.696 237.896 196.477C240.145 205.509 244.144 213.555 249.505 219.751C252.328 223.043 255.754 225.976 259.623 228.496C259.647 229.049 259.674 229.675 259.698 230.42C259.777 232.004 259.933 234.648 259.933 237.362C259.933 240.796 259.726 244.398 258.942 246.297C258.732 246.826 258.473 247.211 258.159 247.449C257.923 247.643 257.636 247.811 257.374 247.979C250.237 248.194 230.238 249.109 226.998 252.737C226.501 252.759 226.003 252.784 225.506 252.832C216.464 253.359 207.103 253.89 205.013 254.128C167.028 258.548 150.455 283.675 131.268 312.791L129.465 315.527C124.263 323.624 120.028 330.855 116.526 337.58C114.301 341.831 112.131 346.083 110.042 350.36L108.971 352.521C99.7655 371.162 89.3376 392.303 92.4222 413.537C94.9304 430.712 108.422 447.072 125.23 453.296C143.187 459.948 161.671 463.672 177.301 463.745C181.224 463.767 185.614 463.986 190.295 464.201C193.013 464.322 195.783 464.443 198.582 464.538C204.698 466.268 213.717 467.253 223.44 467.253C234.238 467.253 243.674 466.001 248.3 464.008H291.801C291.801 464.706 292.426 465.281 293.186 465.281C293.97 465.281 294.596 464.706 294.596 464.008H481.819C481.898 464.008 482.003 463.961 482.106 463.961C482.185 463.961 482.289 464.008 482.392 464.008C483.153 464.008 483.782 463.434 483.782 462.714C483.782 455.41 484.223 442.701 484.641 430.426C485.111 416.926 485.529 404.148 485.346 400.063Z" fill="#100F0D"/>
<path d="M335.821 71.3941C335.816 71.3969 335.816 71.3969 335.816 71.3969C335.841 71.4232 335.869 71.4482 335.893 71.4745C335.866 71.4454 335.845 71.4232 335.821 71.3941Z" fill="#100F0D"/>
<path d="M277.87 195.647C277.405 196.933 276.942 198.216 276.475 199.502C275.901 201.076 278.599 201.746 279.165 200.184C279.636 198.898 280.098 197.615 280.564 196.334C281.138 194.755 278.438 194.083 277.87 195.647Z" fill="#100F0D"/>
<path d="M284.227 199.844C284.198 200.148 284.333 199.431 284.351 199.364C284.465 198.92 284.592 198.479 284.716 198.034C284.896 197.399 285.097 196.756 285.155 196.098C285.303 194.444 282.506 194.457 282.361 196.098C282.388 195.79 282.253 196.508 282.237 196.577C282.12 197.022 281.991 197.464 281.87 197.904C281.69 198.542 281.491 199.184 281.431 199.844C281.283 201.494 284.081 201.482 284.227 199.844Z" fill="#100F0D"/>
<path d="M289.231 199.841C289.276 198.619 289.649 197.428 289.698 196.203C289.763 194.546 286.968 194.553 286.903 196.203C286.855 197.425 286.485 198.615 286.437 199.841C286.371 201.498 289.165 201.491 289.231 199.841Z" fill="#100F0D"/>
<path d="M291.441 196.312C291.441 197.486 291.441 198.666 291.441 199.841C291.441 201.498 294.237 201.498 294.237 199.841C294.237 198.666 294.237 197.486 294.237 196.312C294.237 194.655 291.441 194.655 291.441 196.312Z" fill="#100F0D"/>
<path d="M306.512 200.184C307.078 201.748 309.78 201.079 309.206 199.502C308.74 198.216 308.278 196.933 307.808 195.647C307.242 194.083 304.543 194.755 305.117 196.329C305.582 197.615 306.045 198.898 306.512 200.184Z" fill="#100F0D"/>
<path d="M301.265 199.117C301.303 199.262 301.477 200.075 301.459 199.841C301.604 201.479 304.401 201.491 304.253 199.841C304.194 199.18 303.994 198.542 303.814 197.901C303.714 197.542 303.61 197.181 303.515 196.822C303.473 196.676 303.3 195.863 303.32 196.098C303.175 194.461 300.378 194.448 300.526 196.098C300.584 196.758 300.785 197.396 300.965 198.037C301.065 198.396 301.165 198.758 301.265 199.117Z" fill="#100F0D"/>
<path d="M295.984 196.203C296.032 197.425 296.402 198.619 296.45 199.841C296.516 201.491 299.31 201.498 299.244 199.841C299.196 198.619 298.826 197.425 298.778 196.203C298.712 194.553 295.918 194.546 295.984 196.203Z" fill="#100F0D"/>
</svg>
