<svg width="30" height="28" viewBox="0 0 30 28" fill="none" xmlns="http://www.w3.org/2000/svg">
<path d="M14.7027 17.3518C16.8596 17.3518 18.6081 15.7213 18.6081 13.7101C18.6081 11.6988 16.8596 10.0683 14.7027 10.0683C12.5458 10.0683 10.7973 11.6988 10.7973 13.7101C10.7973 15.7213 12.5458 17.3518 14.7027 17.3518Z" stroke="#FFCD9E" stroke-width="3" stroke-linecap="round" stroke-linejoin="round"/>
<path d="M20.2162 3.42749H9.1892C6.14417 3.42749 3.67569 5.72932 3.67569 8.56877V18.8513C3.67569 21.6908 6.14417 23.9926 9.1892 23.9926H20.2162C23.2613 23.9926 25.7297 21.6908 25.7297 18.8513V8.56877C25.7297 5.72932 23.2613 3.42749 20.2162 3.42749Z" stroke="#FFCD9E" stroke-width="3" stroke-linecap="round" stroke-linejoin="round"/>
<path d="M20.6757 9.85412C21.6907 9.85412 22.5135 9.08685 22.5135 8.14036C22.5135 7.19388 21.6907 6.42661 20.6757 6.42661C19.6607 6.42661 18.8378 7.19388 18.8378 8.14036C18.8378 9.08685 19.6607 9.85412 20.6757 9.85412Z" fill="#FFCD9E"/>
</svg>
