<svg width="30" height="28" viewBox="0 0 30 28" fill="none" xmlns="http://www.w3.org/2000/svg">
<path d="M24.3513 3.8559H5.05405C4.54655 3.8559 4.13513 4.23953 4.13513 4.71278V22.7072C4.13513 23.1805 4.54655 23.5641 5.05405 23.5641H24.3513C24.8589 23.5641 25.2703 23.1805 25.2703 22.7072V4.71278C25.2703 4.23953 24.8589 3.8559 24.3513 3.8559Z" stroke="#FFCD9E" stroke-width="3" stroke-linecap="round" stroke-linejoin="round"/>
<path d="M14.2433 12.8533V18.8514" stroke="#FFCD9E" stroke-width="3" stroke-linecap="round" stroke-linejoin="round"/>
<path d="M9.64865 12.8533V18.8514" stroke="#FFCD9E" stroke-width="3" stroke-linecap="round" stroke-linejoin="round"/>
<path d="M14.2433 15.8524C14.2433 15.0569 14.5821 14.2941 15.1853 13.7317C15.7884 13.1692 16.6065 12.8533 17.4595 12.8533C18.3125 12.8533 19.1305 13.1692 19.7337 13.7317C20.3368 14.2941 20.6757 15.0569 20.6757 15.8524V18.8514" stroke="#FFCD9E" stroke-width="3" stroke-linecap="round" stroke-linejoin="round"/>
<path d="M9.64866 10.2826C10.6637 10.2826 11.4865 9.51528 11.4865 8.5688C11.4865 7.62232 10.6637 6.85504 9.64866 6.85504C8.63365 6.85504 7.81082 7.62232 7.81082 8.5688C7.81082 9.51528 8.63365 10.2826 9.64866 10.2826Z" fill="#FFCD9E"/>
</svg>
